<svg width="30" height="30" viewBox="0 0 30 30" fill="none" xmlns="http://www.w3.org/2000/svg">
<path d="M29.8265 23.5836C29.8894 24.0658 29.7426 24.485 29.3866 24.8413L25.2076 28.9914C25.019 29.2011 24.7729 29.3794 24.4692 29.526C24.1655 29.6727 23.867 29.7671 23.5738 29.8089C23.5529 29.8089 23.4899 29.8143 23.3851 29.8248C23.2805 29.8352 23.1444 29.8406 22.9768 29.8406C22.5787 29.8406 21.9345 29.7725 21.0442 29.6362C20.154 29.4999 19.0647 29.1644 17.7766 28.63C16.4881 28.0955 15.027 27.2936 13.3932 26.2247C11.7593 25.1558 10.0206 23.6885 8.17722 21.8229C6.71089 20.3765 5.49593 18.9931 4.53234 17.6726C3.56876 16.352 2.79369 15.131 2.20716 14.0096C1.62058 12.8881 1.18068 11.8715 0.887413 10.9597C0.594147 10.0479 0.395145 9.26184 0.290407 8.60156C0.185669 7.94128 0.143774 7.42249 0.164722 7.04519C0.185669 6.66788 0.196143 6.45827 0.196143 6.41635C0.238038 6.12289 0.332302 5.82419 0.478935 5.52026C0.625569 5.21632 0.803623 4.97002 1.0131 4.78137L5.19214 0.599606C5.48541 0.306149 5.82057 0.15942 6.19763 0.15942C6.46994 0.15942 6.71084 0.238025 6.92032 0.395234C7.12979 0.552443 7.30785 0.746335 7.45448 0.976908L10.8166 7.3596C11.0051 7.69498 11.0575 8.06181 10.9737 8.46007C10.8899 8.85833 10.7118 9.19371 10.4395 9.46621L8.89986 11.0069C8.85797 11.0488 8.82131 11.1169 8.78989 11.2112C8.75847 11.3056 8.74276 11.3842 8.74276 11.447C8.82655 11.8872 9.01507 12.3903 9.30834 12.9563C9.55971 13.4593 9.94724 14.0724 10.4709 14.7956C10.9946 15.5188 11.7383 16.3519 12.7018 17.2952C13.6445 18.2595 14.4824 19.0088 15.2156 19.5434C15.9486 20.0777 16.5615 20.4709 17.0538 20.7224C17.546 20.9739 17.9231 21.1259 18.1849 21.1781L18.5775 21.2568C18.6194 21.2568 18.6877 21.241 18.7818 21.2096C18.8761 21.1781 18.9442 21.1415 18.9861 21.0995L20.7771 19.2759C21.1544 18.9406 21.594 18.7729 22.0968 18.7729C22.4531 18.7729 22.7357 18.8357 22.9452 18.9615L29.0408 22.5459C29.4809 22.8186 29.7427 23.1644 29.8265 23.5836Z" fill="black"/>
</svg>
